# xmcd
# Copyright (C) 1995-1998 Ti Kan
#
# Track frame offsets:
#       150
#       15405
#       32272
#
# Disc length: 730 seconds
#
# Revision: 0
# Processed by: cddbd v1.4b42PL1 Copyright (c) Steve Scherf et al.
# Submitted via: CD-Transfer v1.0
#
DISCID=1002d803
DTITLE=Paganini - Follow The Sun
DYEAR=2000
DGENRE=
TTITLE0=Follow The Sun
TTITLE1=My Life
TTITLE2=My Life (Instrumental)
EXTD=
EXTT0=
EXTT1=
EXTT2=
PLAYORDER=
